<?xml version="1.0" encoding="utf-8"?>
<!-- Generator: Adobe Illustrator 18.1.1, SVG Export Plug-In . SVG Version: 6.00 Build 0)  -->
<svg version="1.1" id="Livello_2" xmlns="http://www.w3.org/2000/svg" xmlns:xlink="http://www.w3.org/1999/xlink" x="0px" y="0px"
	 viewBox="0 0 297 66.8" enable-background="new 0 0 297 66.8" xml:space="preserve">
<rect y="0" fill="#A13E1C" width="297" height="66.8"/>
<g>
	<g>
		<g>
			<polygon fill="#FFFFFF" points="80.8,29 79.3,29 79.3,21 78.1,21 78.1,26.8 76.7,26.8 76.7,19.6 80.8,19.6 			"/>
		</g>
		<g>
			<g>
				<path fill="#FFFFFF" d="M45.9,50.8c-0.5,0-0.9-0.4-0.9-0.9v-2.3c0-0.5,0.4-0.9,0.9-0.9c0.5,0,0.9,0.4,0.9,0.9v2.3
					C46.8,50.4,46.4,50.8,45.9,50.8z"/>
			</g>
			<g>
				<path fill="#FFFFFF" d="M72.6,49c-0.5,0-0.9-0.4-0.9-0.9v-4.9c0-0.5,0.4-0.9,0.9-0.9s0.9,0.4,0.9,0.9V48
					C73.5,48.5,73.1,49,72.6,49z M45.9,45.5c-0.5,0-0.9-0.4-0.9-0.9v-4.9c0-0.5,0.4-0.9,0.9-0.9c0.5,0,0.9,0.4,0.9,0.9v4.9
					C46.8,45.1,46.4,45.5,45.9,45.5z M72.6,41.1c-0.5,0-0.9-0.4-0.9-0.9v-0.2c0-0.8-0.3-1.5-0.9-2l-1.2-1.1
					c-0.4-0.3-0.4-0.9-0.1-1.3c0.3-0.4,0.9-0.4,1.3-0.1l1.2,1.1c1,0.9,1.6,2.1,1.6,3.4v0.2C73.5,40.7,73.1,41.1,72.6,41.1z
					 M45.9,37.7C45.9,37.7,45.8,37.7,45.9,37.7c-0.6,0-1-0.5-0.9-1c0.1-1.3,0.8-2.4,1.8-3.2l1.5-1.1c0.4-0.3,1-0.2,1.3,0.2
					c0.3,0.4,0.2,1-0.2,1.3L47.9,35c-0.6,0.4-1,1.1-1,1.9C46.8,37.3,46.4,37.7,45.9,37.7z M67.9,35.2c-0.2,0-0.4-0.1-0.6-0.2
					l-3.7-3.2c-0.4-0.3-0.4-0.9-0.1-1.3c0.3-0.4,0.9-0.4,1.3-0.1l3.7,3.2c0.4,0.3,0.4,0.9,0.1,1.3C68.4,35.1,68.1,35.2,67.9,35.2z
					 M51.2,32.2c-0.3,0-0.6-0.1-0.8-0.4c-0.3-0.4-0.2-1,0.2-1.3l3.9-2.9c0.4-0.3,1-0.2,1.3,0.2c0.3,0.4,0.2,1-0.2,1.3l-3.9,2.9
					C51.6,32.2,51.4,32.2,51.2,32.2z M61.9,30.1c-0.2,0-0.4-0.1-0.6-0.2l-1.5-1.3c-0.6-0.5-1.3-0.7-2-0.6c-0.5,0.1-1-0.3-1-0.8
					c-0.1-0.5,0.3-1,0.8-1c1.2-0.2,2.5,0.2,3.5,1.1l1.5,1.3c0.4,0.3,0.4,0.9,0.1,1.3C62.4,30,62.2,30.1,61.9,30.1z"/>
			</g>
			<g>
				<path fill="#FFFFFF" d="M72.6,54.3c-0.5,0-0.9-0.4-0.9-0.9V51c0-0.5,0.4-0.9,0.9-0.9s0.9,0.4,0.9,0.9v2.3
					C73.5,53.9,73.1,54.3,72.6,54.3z"/>
			</g>
		</g>
		<g>
			
				<rect x="78.4" y="37" transform="matrix(0.4027 0.9153 -0.9153 0.4027 86.6274 -46.3114)" fill="#FFFFFF" width="0.8" height="12.5"/>
		</g>
		<g>
			
				<rect x="78.4" y="39.5" transform="matrix(0.4027 0.9153 -0.9153 0.4027 88.9626 -44.7876)" fill="#FFFFFF" width="0.8" height="12.5"/>
		</g>
		<g>
			
				<rect x="78.4" y="42.1" transform="matrix(0.4027 0.9153 -0.9153 0.4027 91.2976 -43.264)" fill="#FFFFFF" width="0.8" height="12.5"/>
		</g>
		<g>
			<path fill="#FFFFFF" d="M72.8,39.9c-0.3,0-0.5-0.2-0.6-0.4c-0.2-0.4,0-0.8,0.4-0.9l12-5.3c0.4-0.2,0.8,0,0.9,0.4
				c0.2,0.4,0,0.8-0.4,0.9l-12,5.3C73,39.9,72.9,39.9,72.8,39.9z"/>
		</g>
		<g>
			<path fill="#FFFFFF" d="M58.4,27"/>
		</g>
		<g>
			<g>
				<path fill="#FFFFFF" d="M96.4,51.6h-6.7c-0.5,0-0.9-0.4-0.9-0.9s0.4-0.9,0.9-0.9h6.7c0.5,0,0.9,0.4,0.9,0.9S96.9,51.6,96.4,51.6
					z"/>
			</g>
		</g>
		<g>
			<path fill="#FFFFFF" d="M89.6,51.6c-1.9,0-3.6-0.6-4.6-1.6c-0.7-0.7-1.1-1.6-1.1-2.7V34.9c0-0.8-0.3-1.5-0.9-2l-10.9-9.4
				c-1.3-1.2-2.5-1.4-3.7-0.7c-0.5,0.2-1,0.1-1.3-0.4c-0.2-0.5-0.1-1,0.4-1.3c1.9-1,3.9-0.7,5.8,1l10.9,9.4c1,0.9,1.6,2.1,1.6,3.4
				v12.5c0,0.6,0.2,1,0.5,1.4c0.6,0.6,1.9,1,3.3,1c0,0,0,0,0,0c0.5,0,0.9,0.4,0.9,0.9C90.6,51.2,90.2,51.6,89.6,51.6
				C89.7,51.6,89.7,51.6,89.6,51.6z"/>
		</g>
		<g>
			<path fill="#FFFFFF" d="M57.8,27.9c-0.3,0-0.7-0.2-0.8-0.5c-0.2-0.5,0-1,0.4-1.3l10.2-5.1c0.5-0.2,1,0,1.3,0.4
				c0.2,0.5,0,1-0.4,1.3l-10.2,5.1C58.1,27.9,58,27.9,57.8,27.9z"/>
		</g>
		<g>
			<path fill="#FFFFFF" d="M53.7,44.6L53.7,44.6c-0.7-0.1-1.3-0.7-1.3-1.5v-3.5c0-0.9,0.8-1.6,1.7-1.5h0c0.7,0.1,1.3,0.7,1.3,1.5
				v3.5C55.4,44,54.6,44.7,53.7,44.6z"/>
		</g>
		<g>
			<path fill="#FFFFFF" d="M62.3,45.7l-0.2,0c-0.7-0.1-1.2-0.7-1.2-1.3v-3.7c0-0.8,0.7-1.5,1.5-1.3l0.2,0c0.7,0.1,1.2,0.7,1.2,1.3
				v3.7C63.8,45.2,63.1,45.8,62.3,45.7z"/>
		</g>
	</g>
	<g>
		<path fill="#FFFFFF" d="M108.7,42.5c0.9,0.7,1.3,2,1.3,3.9c0,1.9-0.4,3.2-1.3,4s-2,1.1-3.2,1.1h-2.2V41.4h2
			C106.7,41.4,107.8,41.7,108.7,42.5z M104.2,50.8h1.3c2.4,0,3.6-1.5,3.6-4.4c0-1.2-0.2-2.1-0.5-2.7c-0.3-0.6-0.8-1-1.3-1.2
			c-0.5-0.2-1.1-0.3-1.8-0.3h-1.2V50.8z"/>
		<path fill="#FFFFFF" d="M112.6,51.5V41.4h0.9v10.1H112.6z"/>
		<path fill="#FFFFFF" d="M126.6,46.9c0.4,0.4,0.6,1,0.6,1.8c0,0.9-0.3,1.6-1,2.1c-0.6,0.5-1.5,0.7-2.7,0.7h-2.8V41.4h2.3
			c1.2,0,2.1,0.2,2.7,0.6c0.6,0.4,1,1.1,1,1.9c0,0.6-0.2,1.1-0.5,1.5c-0.3,0.4-0.8,0.6-1.4,0.7C125.7,46.2,126.2,46.5,126.6,46.9z
			 M121.8,45.8h2c0.6,0,1.1-0.2,1.5-0.5c0.4-0.3,0.6-0.8,0.6-1.4c0-0.7-0.2-1.1-0.7-1.4c-0.4-0.3-1.1-0.4-2-0.4h-1.5V45.8z
			 M126.4,48.7c0-0.7-0.2-1.3-0.7-1.6c-0.4-0.4-1-0.5-1.8-0.5h-2.1v4.2h1.9C125.5,50.8,126.4,50.1,126.4,48.7z"/>
		<path fill="#FFFFFF" d="M135.4,41.8c0.6,0.4,1.1,1,1.4,1.8s0.5,1.7,0.5,2.8c0,1.1-0.2,2-0.5,2.8c-0.3,0.8-0.8,1.4-1.4,1.8
			c-0.6,0.4-1.3,0.6-2.2,0.6c-0.8,0-1.5-0.2-2.2-0.6c-0.6-0.4-1.1-1-1.4-1.8c-0.3-0.8-0.5-1.7-0.5-2.8c0-1.1,0.2-2,0.5-2.8
			c0.3-0.8,0.8-1.4,1.5-1.8c0.6-0.4,1.3-0.6,2.1-0.6C134,41.2,134.7,41.4,135.4,41.8z M130.9,43.1c-0.6,0.8-0.9,1.9-0.9,3.4
			c0,1.5,0.3,2.6,0.9,3.3c0.6,0.7,1.4,1.1,2.3,1.1c1,0,1.8-0.4,2.4-1.1c0.6-0.7,0.8-1.9,0.8-3.3c0-1.5-0.3-2.6-0.8-3.4
			c-0.6-0.7-1.4-1.1-2.4-1.1C132.2,42,131.4,42.4,130.9,43.1z"/>
		<path fill="#FFFFFF" d="M145,50.7l-0.1,0.8h-5V41.4h0.9v9.3H145z"/>
		<path fill="#FFFFFF" d="M152.4,41.8c0.6,0.4,1.1,1,1.4,1.8s0.5,1.7,0.5,2.8c0,1.1-0.2,2-0.5,2.8c-0.3,0.8-0.8,1.4-1.4,1.8
			c-0.6,0.4-1.3,0.6-2.2,0.6c-0.8,0-1.5-0.2-2.2-0.6c-0.6-0.4-1.1-1-1.4-1.8c-0.3-0.8-0.5-1.7-0.5-2.8c0-1.1,0.2-2,0.5-2.8
			c0.3-0.8,0.8-1.4,1.5-1.8c0.6-0.4,1.3-0.6,2.1-0.6C151.1,41.2,151.8,41.4,152.4,41.8z M147.9,43.1c-0.6,0.8-0.9,1.9-0.9,3.4
			c0,1.5,0.3,2.6,0.9,3.3c0.6,0.7,1.4,1.1,2.3,1.1c1,0,1.8-0.4,2.4-1.1c0.6-0.7,0.8-1.9,0.8-3.3c0-1.5-0.3-2.6-0.8-3.4
			c-0.6-0.7-1.4-1.1-2.4-1.1C149.3,42,148.5,42.4,147.9,43.1z"/>
		<path fill="#FFFFFF" d="M162,41.5c0.4,0.2,0.9,0.4,1.3,0.8l-0.5,0.5c-0.4-0.3-0.7-0.5-1.1-0.6c-0.3-0.1-0.7-0.2-1.2-0.2
			c-0.6,0-1.1,0.2-1.6,0.5c-0.5,0.3-0.9,0.8-1.2,1.5c-0.3,0.7-0.5,1.5-0.5,2.5c0,1.5,0.3,2.6,0.9,3.4c0.6,0.7,1.4,1.1,2.4,1.1
			c0.8,0,1.5-0.2,2.1-0.5v-3.6h-2l-0.1-0.7h3v4.8c-0.9,0.6-2,0.8-3,0.8c-0.8,0-1.6-0.2-2.2-0.6c-0.6-0.4-1.1-1-1.4-1.8
			c-0.3-0.8-0.5-1.8-0.5-2.9c0-1.1,0.2-2,0.6-2.8c0.4-0.8,0.9-1.4,1.5-1.8c0.6-0.4,1.3-0.6,2.1-0.6C161.1,41.2,161.6,41.3,162,41.5z
			"/>
		<path fill="#FFFFFF" d="M171.6,51.5l-4.8-9.1c0.1,1.2,0.1,2.4,0.1,3.5v5.7h-0.8V41.4h1.1l4.8,9.1c-0.1-1.1-0.1-2.1-0.1-3v-6.1h0.8
			v10.1H171.6z"/>
		<path fill="#FFFFFF" d="M176.4,48.7l-0.9,2.8h-0.9l3.4-10.1h1.1l3.4,10.1h-0.9l-0.9-2.8H176.4z M178.6,42.1l-1.9,5.9h3.8
			L178.6,42.1z"/>
	</g>
	<g>
		<g>
			<path fill="#FFFFFF" d="M190.6,29c-1.5,2.2-3.6,3.7-6,4.7c-1.2,0.5-2.8,1.2-4.1,0.9c-1.9-0.5-3.3-2.8-2.5-4.6
				c2.9,0.9,5.8,0,8-1.9c1.3-1.2,2.9-3.3,1.3-4.7c0-0.1,0-0.1-0.1-0.2c-0.1-0.1-0.3-0.1-0.4-0.2c-3.8-0.3-7.1,3.2-9.3,5.9
				c-0.1,0.1-0.1,0.2-0.1,0.2c-0.1,0.1-0.1,0.2-0.1,0.3c-1.6,2-3.4,4.1-5.8,5c-1.2,0.5-2.6,0.7-2.3-1.7c0.1-0.7,0.7-1.3,1.1-1.8
				c0.8-1.2,1.7-2.4,2.6-3.5c0.2-0.2,0.1-0.4,0-0.6c0,0,0,0-0.1-0.1c-1.1-1-2.1-1.9-3.2-2.9c0.8-1.1,1.6-2.3,2.3-3.4
				c0.3-0.5-0.4-1.1-0.7-0.6c-2.7,4.1-5.5,8.1-8.5,12c0,0-0.1,0.1-0.1,0.1c-0.7,1-1.5,2.2-2.7,2.6c-3.5,1.1-3.7-3-3.4-4.7
				c0.3-2.2,1.2-4.3,2.2-6.2c0.2-0.4,0.5-0.9,0.7-1.3c0.3-0.4,0.5-0.8,0.7-1.3c0.4-0.7,0.8-1.3,1.2-2c1.7,0,3.4,0,5.1,0
				c0.6,0,0.5-0.9-0.1-0.9c-1.2,0-2.3,0-3.5,0c-0.3,0-0.7,0-1,0c1.2-1.9,2.4-3.8,3.6-5.8c0.3-0.5-0.4-1.1-0.7-0.6
				c-1.3,2.1-2.7,4.2-4,6.3c-0.2,0-0.4,0-0.6,0c-1.6,0-1.3,0-2.9,0c-0.6,0-0.5,0.9,0.1,0.9c1.5,0,1.2,0,2.8,0l0,0c0,0,0,0,0,0
				c-0.3,0.5-0.6,1-0.9,1.5c0,0-0.1,0.1-0.1,0.1c-0.2,0.4-0.5,0.8-0.7,1.2c-1.6,2.6-3.5,5-5.7,7.2c-0.1,0.1-0.1,0.1-0.1,0.2
				c-1.5,1.7-3,3.5-5,4.5c-1.8,0.9-4.1,1.4-4.8-1.5c-0.2-0.8,0-1.9,0.2-2.8c2.5-2,4.9-4.2,7.1-6.5c2.2-2.3,5-5.1,6.3-8
				c0.6-1.3,0.5-3.5-1.3-3.7c-2.2-0.3-4.8,3.5-5.9,5c-2.1,2.7-4,5.8-5.6,8.8c-0.6,1.1-1.2,2.5-1.6,3.9c-0.1,0.1-0.2,0.1-0.3,0.2
				c-0.1,0.2-0.2,0.4-0.3,0.5c0,0.1-0.1,0.1-0.1,0.2c-1,1.7-2.6,3.8-4.4,4.5c-4.2,1.6-4.1-4.8-2.7-7.1c0.3-0.4-0.3-0.7-0.6-0.6
				c-0.1,0-0.3,0-0.4,0.2c-1,1.6-2,3.2-3.2,4.6c-1.3,1.4-6.9,5.2-6.4,0.4c0.2-2.2,1.6-4.4,3.1-5.9c0.9-1,2.1-1.9,3.3-2.5
				c1.8-0.8,5.7-1.1,5.1,2.3c-0.1,0.6,0.8,0.7,0.9,0.1c0.6-3.2-2.7-4.5-5.3-3.7c-3.6,1.2-6.6,4.7-7.7,8.2c-0.7,2.4-0.2,5.4,3,4.7
				c2.8-0.6,4.9-2.9,6.5-5.3c-0.3,2.4,0.3,5,2.6,5.7c2.6,0.7,5.2-2.2,6.7-4.5c0,0.7,0.1,1.4,0.3,2c2.1,6.2,9.5-1.2,11.5-3.5
				c0-0.1,0.1-0.1,0.1-0.2c0.9-0.9,1.8-1.9,2.6-2.9c-0.4,1.1-0.7,2.2-0.8,3.4c-0.2,2.1,0.3,4.6,2.4,5.4c2.3,0.9,4.1-1.1,5.3-2.8
				c0,0,0.1,0,0.1-0.1c2-2.6,3.9-5.2,5.8-7.9c0.9,0.8,1.9,1.7,2.8,2.5c-1.5,1.9-6.1,7.1-2.6,8.4c2.7,1,5.7-1.9,7.6-4.2
				c0.1,2,1.4,3.9,3.5,4.2c4,0.5,8.9-2.8,11-6C191.7,29,191,28.5,190.6,29z M186.5,23.9c1.9,1.5-1.7,3.9-2.7,4.5
				c-1.7,1-3.5,1.3-5.4,0.7C180.4,26.9,183.4,23.7,186.5,23.9z M149.8,17.1c0.6-0.7,1.1-1.5,1.7-2.2c0.5-0.6,1-1.1,1.6-1.6
				c0.2-0.3,0.5-0.5,0.7-0.6c0.6-0.3,1.4-0.3,1.7,0.4c0.2,0.5,0.2,0.9,0.1,1.3c0,0,0,0,0,0c-0.2,0.9-1.5,2.2-2.1,2.9
				c-0.7,0.8-1.3,1.7-2,2.5c-2.4,2.9-5.1,5.4-8,7.8C144.8,24,147.4,20.3,149.8,17.1z"/>
			<path fill="#FFFFFF" d="M170.4,36.3c-0.5,0-0.9-0.1-1.4-0.2c-1.1-0.4-1.4-1.1-1.6-1.6c-0.6-2.2,2.1-5.5,3.6-7.3l-1.9-1.7
				c-1.8,2.6-3.6,5.1-5.4,7.4l-0.1,0.1c-1,1.4-2.6,3.2-4.6,3.2c-0.4,0-0.9-0.1-1.3-0.3c-2.1-0.8-3.1-3.1-2.8-6
				c0-0.3,0.1-0.6,0.1-0.9c-0.3,0.3-0.6,0.6-0.8,0.9c0,0.1-0.1,0.2-0.1,0.2c-0.2,0.2-5.2,6.1-9.1,6.1c-1.1,0-2.6-0.5-3.4-2.8
				c-0.1-0.2-0.1-0.4-0.2-0.5c-1.3,1.6-3.3,3.6-5.5,3.6c-0.3,0-0.7,0-1-0.1c-2-0.6-2.9-2.4-3-4.4c-1.4,1.7-3.3,3.5-5.7,4
				c-1.4,0.3-2.6,0-3.3-1c-0.9-1.2-0.8-3.1-0.4-4.5c1.2-4,4.5-7.5,8.1-8.6c1.9-0.6,4.3-0.1,5.4,1.3c0.7,0.8,0.9,1.9,0.7,3.1
				c-0.1,0.5-0.5,0.9-1.1,0.9c-0.3,0-0.5-0.1-0.7-0.3c0.2,0.3,0.1,0.6,0,0.9c-0.8,1.4-1.1,4.2-0.3,5.6c0.5,0.8,1.2,1,2.3,0.6
				c1.3-0.5,2.9-2.1,4.1-4.2l0.1-0.1c0.1-0.2,0.2-0.4,0.3-0.6l0.3-0.3c0.4-1.4,1-2.8,1.6-3.8c1.5-2.9,3.4-5.9,5.6-8.9l0.4-0.5
				c1.4-1.9,3.7-5,6-4.7c0.8,0.1,1.4,0.5,1.8,1.2c0.6,1.1,0.4,2.5,0,3.4c-1.3,2.7-3.7,5.2-5.8,7.4l-0.7,0.7c-2.1,2.2-4.4,4.4-7,6.4
				c-0.2,1-0.3,1.8-0.2,2.4c0.4,1.6,1.2,1.7,1.8,1.7c0.6,0,1.3-0.2,2.2-0.6c1.9-1,3.3-2.6,4.8-4.3c0-0.1,0.1-0.2,0.2-0.3
				c2.1-2.2,4-4.5,5.6-7.1c0.2-0.4,0.5-0.8,0.7-1.2l0.6,0.2l-0.5-0.3l0.3-0.4c0.1-0.1,0.1-0.2,0.2-0.3l-1.7,0
				c-0.7,0-1.1-0.6-1.1-1.1c0-0.6,0.4-1,1-1l2.9,0c0.1,0,0.2,0,0.3,0l3.8-6c0.4-0.6,1.4-0.6,1.8,0.1c0.2,0.4,0.2,0.8,0,1.1l-3,4.8
				l3.4,0c0.7,0,1.1,0.6,1.1,1.1c0,0.6-0.4,1-1,1l-4.8,0c-0.4,0.6-0.7,1.1-1.1,1.7l-0.2,0.4c-0.2,0.3-0.3,0.6-0.5,0.8l-0.2,0.4
				c-0.2,0.3-0.3,0.6-0.5,0.9c-0.9,1.6-1.9,3.8-2.2,6c-0.2,1.3,0,3,0.7,3.8c0.4,0.5,1.1,0.6,2,0.3c0.9-0.3,1.6-1.2,2.2-2.1l0.2-0.3
				c0.1-0.1,0.1-0.1,0.2-0.2c3-3.8,5.8-7.8,8.4-11.9c0.4-0.6,1.4-0.5,1.8,0.1c0.2,0.4,0.2,0.8,0,1.1c-0.7,1-1.3,2-2,3l3,2.7
				c0.3,0.3,0.3,0.9,0,1.3l-0.5,0.7c-0.7,0.9-1.4,1.9-2.1,2.8c-0.1,0.1-0.2,0.3-0.3,0.4c-0.3,0.4-0.6,0.8-0.7,1.2
				c-0.1,0.9,0,1.2,0.1,1.2c0,0,0.1,0.1,0.3,0.1c0.3,0,0.8-0.1,1.1-0.3c2.3-0.9,4-2.9,5.5-4.8c0-0.1,0.1-0.1,0.1-0.2
				c0-0.2,0.1-0.3,0.2-0.4c2.5-3,5.8-6.5,9.8-6.1l0.2,0c0.2,0.1,0.3,0.1,0.5,0.2l0.2,0.2c0,0.1,0.1,0.1,0.1,0.2
				c0.5,0.5,0.8,1.1,0.8,1.8c0,1.6-1.5,3.1-2.2,3.7c-2.4,2.1-5.3,2.9-8,2.2c-0.1,0.5,0,1.1,0.3,1.7c0.4,0.8,1.2,1.5,2,1.7
				c0.9,0.2,2.4-0.3,3.5-0.8l0.2-0.1c2.5-1,4.4-2.5,5.8-4.5c0.4-0.6,1.4-0.5,1.8,0.1c0.2,0.4,0.2,0.8-0.1,1.1
				c-2.1,3.1-6.6,6.3-10.6,6.3l0,0c-0.3,0-0.6,0-1-0.1c-2-0.3-3.3-1.8-3.8-3.5C174.9,34.4,172.7,36.3,170.4,36.3z M168.5,33.8
				c0,0.1,0,0.2,0,0.3c0,0.1,0.1,0.2,0.1,0.3C168.6,34.3,168.6,34.1,168.5,33.8z M132.6,23.6c-0.8,0-1.6,0.2-2.3,0.5
				c-1,0.5-2.2,1.3-3.1,2.3c-1.7,1.7-2.8,3.8-3,5.6c-0.1,0.7,0,1.2,0.2,1.5c0,0,0.2,0.2,0.6,0.2c1.4,0,3.8-1.7,4.6-2.6
				c1.3-1.4,2.3-3,3.2-4.5c0.2-0.3,0.4-0.5,0.7-0.5c0.4-0.1,0.8,0,1.1,0.2c-0.1-0.2-0.1-0.4-0.1-0.7c0.1-0.7,0.1-1.2-0.2-1.5
				C134,23.8,133.4,23.6,132.6,23.6z M179.6,28.8c1.4,0.2,2.7-0.1,4-0.9c1.2-0.7,2.9-2.1,2.9-3c0-0.1,0-0.3-0.2-0.5c0,0,0,0,0,0
				C183.6,24.5,181,27.2,179.6,28.8z M154.5,13.2c-0.1,0-0.3,0-0.4,0.1c-0.2,0.1-0.3,0.1-0.5,0.4c-0.6,0.6-1.1,1.1-1.6,1.7
				c-0.5,0.6-1.1,1.3-1.7,2.1c-1.8,2.5-3.8,5.3-5.2,8.3c2.2-2,4.3-4,6.1-6.2c0.7-0.8,1.4-1.6,2-2.5c0.1-0.2,0.3-0.4,0.6-0.7
				c0.5-0.5,1.2-1.3,1.3-1.9l0-0.1l0.1-0.2c0.1-0.3,0.1-0.6,0-0.9C154.9,13.3,154.7,13.2,154.5,13.2z M154.5,12c0.7,0,1.2,0.3,1.5,1
				c0.1,0.1,0.1,0.2,0.2,0.4c0-0.3-0.1-0.7-0.2-0.9c-0.2-0.3-0.5-0.5-0.9-0.6c-0.4,0-0.7,0.1-1.1,0.3C154.1,12,154.3,12,154.5,12z"
				/>
		</g>
		<g>
			<g>
				<path fill="#FFFFFF" d="M250.7,29c-1.6,2.1-3.7,3.8-6.1,4.9c-0.6,0.3-1.5,0.7-2.2,0.7c-0.9,0.1-2.9-0.9-3.3-1.7
					c-0.3-0.7-0.1-1.7,0.2-2.6c3.3,0.5,8.5-1.4,8.9-4.9c0.6-4.5-6-1-7.3,0.3c-0.2,0.2-0.5,0.5-0.7,0.8c-0.1,0-0.1,0.1-0.2,0.1
					c-1.3,1.7-2.9,3-4.9,3.8c-0.5,0.2-1,0.4-1.6,0.5c0.2-2.7-0.8-5.6-1.2-8l1.6-2.4c0.3-0.5-0.4-1.1-0.7-0.6
					c-1.8,2.8-3.6,5.6-5.4,8.4c-0.1,0-0.1,0.1-0.2,0.1c-1.2,1.8-2.4,3.7-4.2,5c-0.7,0.5-2.2,1.7-3,0.4c-0.4-0.6-0.2-1.7-0.1-2.4
					c0.2-1.2,0.6-2.3,1.1-3.4c0,0,0,0,0,0c0.1-0.1,0.1-0.2,0.1-0.3c0.1-0.5-0.7-0.8-0.9-0.3c0,0,0,0.1-0.1,0.2
					c-1,1.3-1.9,2.7-3.1,3.9c-0.8,0.8-1.7,1.7-2.7,2.1c-3.1,1.3-4.7-0.8-3.7-3.5c0.7-1.8,2.1-3.5,3.7-4.6c1.4-1,7.8-4.1,7.6,0.3
					c0,0.6,0.9,0.7,0.9,0.1c0.2-3.2-3.1-3.7-5.6-2.9c-2.7,0.8-5.2,2.7-6.6,5.1c-0.1,0-0.2,0.1-0.3,0.1c-2.2,2.5-6.3,7.2-10.1,6.2
					c-3.6-0.9-1.9-4.9-0.5-6.9c0.5-0.8,1.2-1.4,1.9-2c0.3-0.2,0.6-0.5,0.9-0.7c1.6-1.4,2.8-1,3.5,1.3c-0.3,0.5,0.4,1.1,0.7,0.6
					c1.4-2.1-0.7-3.9-2.9-3.5c-3.1,0.6-5.7,4.2-6.5,7.2c-0.8,2.8,0.7,5.5,3.9,5.2c3.2-0.3,6-2.6,8.3-5c-0.5,2.2,0.4,4.8,3.1,4.6
					c2.6-0.1,4.8-2.4,6.5-4.6c-0.5,2.2-0.6,4.6,1.6,4.8c2.9,0.3,5.5-3.7,6.9-6c0.1,0,0.1-0.1,0.2-0.2c1.1-1.8,2.2-3.5,3.4-5.3
					c0.3,1.4,0.7,2.8,0.9,4.3c0.1,0.9,0.2,1.9,0.1,2.8c-0.9,0.2-1.9,0.3-2.8,0.5c-1.4,0.4-2.8,1.5-2.4,2.9c0,0.1,0,0.3,0.1,0.4
					c0.1,0.1,0.2,0.2,0.3,0.3c0,0,0,0,0,0c0.1,0.1,0.1,0.1,0.2,0.1c1.5,1.1,3.5,0.5,4.6-1.2c0.4-0.7,0.7-1.4,0.9-2.2
					c0.8-0.2,1.6-0.5,2.4-0.8c0.8-0.4,1.5-0.8,2.2-1.3c0,0.1,0.1,0.2,0.2,0.2c0,0,0,0,0.1,0c-0.7,2.1-0.6,4.2,1.3,5.3
					c1.9,1,4.5-0.1,6.2-1c2.2-1.1,4-2.8,5.5-4.7C251.8,29.1,251.1,28.5,250.7,29z M239.9,28.8c0.8-1.7,3.7-5.1,6-4.7
					c2.9,0.5,0.7,2.5,0.1,3.1c-0.7,0.6-1.3,1.1-2.1,1.5c-1.3,0.6-2.8,1-4.3,0.8C239.7,29.2,239.8,29,239.9,28.8z M228.6,34.6
					c-1.3-1.7,2.6-2.2,3.8-2.4C231.9,33.8,230.5,36.3,228.6,34.6z"/>
			</g>
			<g>
				<path fill="#FFFFFF" d="M250.3,28.7c-1.6,2.2-3.6,3.8-5.9,4.8l-0.2,0.1c-0.6,0.3-1.3,0.6-1.9,0.6c0,0,0,0-0.1,0
					c-0.8,0.1-1.5-0.1-2.2-0.5c-0.1-0.1-0.2-0.2-0.2-0.3c-0.2-0.2-0.3-0.6-0.3-0.9c0,0,0-0.1,0-0.1c0,0,0,0,0,0l0,0
					c0-0.4,0-0.9,0.2-1.4c0.3,0,0.5,0,0.8,0c3.2,0,7.8-1.9,8.3-5.4c0.1-0.9,0-1.6-0.5-2.1c-0.4-0.4-0.9-0.6-1.6-0.6
					c-2,0-5,1.7-6,2.7c-0.2,0.2-0.4,0.5-0.7,0.8c-0.1,0.1-0.1,0.1-0.2,0.2c-1.4,1.7-2.9,2.9-4.7,3.7c-0.3,0.1-0.6,0.2-0.9,0.3
					c0-1.9-0.4-3.8-0.8-5.5c-0.1-0.6-0.3-1.2-0.4-1.8l1.5-2.3c0.2-0.3,0.2-0.7,0-1c-0.3-0.6-1.2-0.7-1.6-0.1l-5.3,8.4
					c-0.1,0.1-0.2,0.1-0.2,0.2l-0.1,0.1c-1.2,1.7-2.3,3.5-4,4.8c-0.4,0.3-1.1,0.9-1.7,0.9c-0.2,0-0.4,0-0.6-0.4
					c-0.3-0.4-0.1-1.3,0-1.9l0-0.1c0.2-1.1,0.6-2.2,1-3.3c0.1-0.2,0.2-0.3,0.2-0.5c0-0.3,0-0.5-0.2-0.7c-0.4-0.5-1.3-0.4-1.6,0.2
					l0,0.1c-1,1.4-1.9,2.7-3,3.8c-0.7,0.7-1.6,1.6-2.6,2c-1.3,0.6-2.5,0.5-3-0.3c-0.4-0.6-0.5-1.6-0.1-2.6c0.6-1.6,1.9-3.2,3.5-4.4
					c0.8-0.6,3.4-1.9,5.2-1.9c0.6,0,1,0.1,1.3,0.4c0.3,0.3,0.4,0.7,0.4,1.4c0,0.3,0.1,0.5,0.3,0.7c0.2,0.2,0.5,0.3,0.7,0.3
					c0.5,0,0.8-0.4,0.9-0.8c0-1.1-0.2-1.9-0.9-2.6c-0.7-0.7-1.8-1.1-3.2-1.1c-0.7,0-1.5,0.1-2.2,0.3c-2.7,0.8-5.3,2.8-6.8,5.2
					c-0.1,0.1-0.2,0.1-0.3,0.2l-0.1,0.1c-1.9,2.1-5.4,6.1-8.6,6.1c-0.3,0-0.6,0-0.9-0.1c-0.9-0.2-1.4-0.6-1.7-1.3
					c-0.5-1.3,0.3-3.4,1.4-4.9c0.5-0.7,1.1-1.4,1.8-1.9c0.3-0.2,0.5-0.4,0.9-0.6c1.3-1.1,2.1-0.9,2.7,0.9c-0.1,0.2-0.1,0.5,0.1,0.7
					c0.3,0.6,1.2,0.7,1.6,0.1c0.6-0.9,0.7-1.9,0.3-2.7c-0.6-1.1-2.1-1.8-3.6-1.5c-3.4,0.7-6,4.4-6.9,7.5c-0.4,1.6-0.2,3.2,0.7,4.3
					c0.8,1.1,2.2,1.6,3.8,1.5c3.1-0.3,5.6-2.2,7.6-4.2c0,1,0.3,1.9,0.8,2.6c0.7,0.9,1.7,1.3,2.9,1.2c2.3-0.1,4.2-1.7,5.7-3.4
					c-0.1,1.1,0.1,2,0.5,2.7c0.4,0.6,1,0.9,1.8,1c3.1,0.3,5.7-3.7,7.3-6l0-0.1c0.1-0.1,0.2-0.1,0.2-0.2l2.8-4.3
					c0.2,1,0.5,2.1,0.6,3.1c0.1,0.9,0.2,1.7,0.1,2.4l-0.2,0c-0.7,0.1-1.5,0.2-2.3,0.5c-0.9,0.3-2.1,0.9-2.6,1.8
					c-0.2,0.5-0.3,1-0.2,1.5c0,0.2,0,0.5,0.2,0.7c0.1,0.1,0.2,0.2,0.3,0.3c0.1,0.1,0.2,0.2,0.3,0.3c0.6,0.4,1.2,0.6,1.9,0.6
					c1.3,0,2.5-0.7,3.3-2c0.4-0.6,0.7-1.3,0.9-2.1c0.8-0.2,1.5-0.5,2.2-0.8c0.5-0.2,1.1-0.6,1.7-0.9c-0.6,2.4,0,4.2,1.7,5.1
					c0.6,0.3,1.2,0.4,1.9,0.4c1.7,0,3.4-0.8,4.7-1.5c2.2-1.1,4.1-2.7,5.7-4.9C252.7,28.9,251.1,27.7,250.3,28.7z M218,23.4
					c0.3-0.1,0.5-0.1,0.8-0.2c-1.5,0.4-3.2,1.2-4,1.7C215.8,24.3,216.9,23.8,218,23.4z M207.1,24.6c0.3,0.5,0.2,1,0,1.5L207,26
					c-0.4-1.4-1.1-2.2-1.9-2.4C206,23.6,206.8,24,207.1,24.6z M201.8,35c-1.3,0.1-2.3-0.3-2.9-1.1c-0.7-0.9-0.9-2.1-0.5-3.5
					c0.6-2.4,2.5-5.1,4.8-6.3c-0.1,0.1-0.2,0.2-0.3,0.3c-0.3,0.2-0.6,0.4-0.9,0.7c-0.7,0.6-1.4,1.3-1.9,2.1c-1.1,1.6-2.2,4-1.5,5.8
					c0.4,1,1.1,1.6,2.3,1.9C201.1,35,201.5,35,201.8,35C201.8,35,201.8,35,201.8,35z M210.3,29.6c0.3-0.4,0.6-0.7,0.9-1l0.1-0.1
					l0.2,0c-0.3,0.5-0.5,1-0.7,1.4c-0.1,0.2-0.1,0.4-0.2,0.6l0.4-1.6L210.3,29.6z M219.3,30.3c-1.4,1.8-3.5,4.3-6.1,4.4
					c-0.9,0.1-1.6-0.2-2.1-0.9c-0.4-0.5-0.6-1.2-0.6-2c0,0.6,0.2,1.2,0.5,1.6c0.8,1.1,2.4,1.4,4.1,0.6c1.2-0.5,2.1-1.4,2.9-2.2
					c1.1-1.2,2.1-2.5,3.1-3.9l0.1-0.1l0,0l0,0.1c-0.2,0.6-0.5,1.2-0.7,1.8l0.3-1.2L219.3,30.3z M227.7,29.4
					c-1.4,2.2-3.8,5.9-6.4,5.6c-0.5-0.1-0.9-0.2-1.1-0.6c-0.2-0.3-0.3-0.8-0.3-1.4c0,0.4,0.1,0.8,0.3,1.1c0.4,0.7,1,0.8,1.4,0.8
					c0.9,0,1.8-0.7,2.3-1.1c1.6-1.3,2.8-3,3.9-4.6L227.7,29.4z M229.9,34.7c-0.3,0-0.6-0.2-0.9-0.4c-0.2-0.2-0.2-0.4-0.2-0.5
					c0.2-0.4,1.1-0.8,2.9-1.1C231.2,33.8,230.6,34.7,229.9,34.7z M233.4,31.5l-0.3,0.1l-0.1,0.3c-0.2,0.8-0.4,1.4-0.8,2
					c-0.1,0.2-0.3,0.4-0.5,0.6c0.5-0.6,0.9-1.4,1.1-2.2l0.2-0.7l-0.9,0.1c-1.2,0.2-2.3,0.4-3.2,0.8c0.3-0.2,0.6-0.3,0.9-0.4
					c0.7-0.2,1.5-0.3,2.2-0.4l0.9-0.1l0-0.3c0.1-0.9,0.1-1.8-0.1-2.9c-0.1-1-0.4-2-0.6-3c0.4,1.9,0.9,3.8,0.7,5.6l0,0.6l0.6-0.1
					c0.2,0,0.4-0.1,0.5-0.1C234,31.3,233.7,31.4,233.4,31.5z M242.8,29.6c0.4-0.1,0.9-0.3,1.3-0.5c0.8-0.4,1.5-0.9,2.3-1.6
					c0.4-0.3,1-0.9,1.3-1.6C247.2,27.6,245.1,29,242.8,29.6z M247.6,24c0.2,0.2,0.3,0.5,0.3,1c0-0.1,0-0.1,0-0.2
					c-0.2-0.5-0.7-0.9-1.5-1.1C246.8,23.6,247.3,23.7,247.6,24z M245.8,24.6c0.6,0.1,1,0.3,1.1,0.5c0.1,0.2,0,0.7-1.2,1.7
					c-0.7,0.6-1.3,1.1-2,1.4c-1.2,0.6-2.3,0.9-3.4,0.8c0,0,0,0,0,0C241.1,27.4,243.8,24.2,245.8,24.6z M238.3,29.1
					c0.8-0.6,1.5-1.4,2.2-2.2l0.1,0c-0.5,0.6-0.9,1.2-1.1,1.7c-0.1,0.2-0.2,0.4-0.3,0.6l-0.2,0.5l0,0l0,0.1l0-0.1l-0.4-0.2
					L238.3,29.1z M245.7,33.9c-1.1,0.6-2.8,1.4-4.3,1.4c-0.6,0-1.1-0.1-1.5-0.3c-1.3-0.7-1.5-1.9-1.4-3.1c0,0.5,0,0.9,0.2,1.3
					c0.5,1.1,2.7,2.1,3.7,2c0.7-0.1,1.5-0.4,2.2-0.7l0.2-0.1c0.4-0.2,0.7-0.3,1-0.5C245.8,33.9,245.7,33.9,245.7,33.9z"/>
			</g>
			<g>
				<path fill="#FFFFFF" d="M219.9,32.4c0,0.1,0,0.3,0,0.4C219.9,32.7,219.9,32.6,219.9,32.4z"/>
			</g>
			<g>
				<path fill="#FFFFFF" d="M228.2,34.8c-0.1-0.1-0.2-0.2-0.2-0.2l0.1-0.2l-0.1-0.2c0,0,0-0.1,0-0.1C228,34.4,228.1,34.7,228.2,34.8
					L228.2,34.8z"/>
			</g>
			<g>
				<path fill="#FFFFFF" d="M248.7,31.8c-0.1,0.1-0.2,0.2-0.3,0.3C248.5,32,248.6,31.9,248.7,31.8z"/>
			</g>
			<g>
				<path fill="#FFFFFF" d="M247.3,32.9c-0.1,0.1-0.2,0.1-0.3,0.2C247.1,33.1,247.2,33,247.3,32.9z"/>
			</g>
			<g>
				<path fill="#FFFFFF" d="M249.8,30.8c0.1-0.1,0.1-0.1,0.2-0.2C249.9,30.6,249.9,30.7,249.8,30.8z"/>
			</g>
			<g>
				<path fill="#FFFFFF" d="M228.4,28.4l-0.2,0.3l-0.1,0.1l-0.1,0.1c-0.1,0.1-0.1,0.2-0.2,0.2L228,29L228.4,28.4z"/>
			</g>
		</g>
	</g>
	<g>
		<path fill="#FFFFFF" d="M108.4,34.4l-0.1,0.8h-5V25.1h0.9v9.3H108.4z"/>
		<path fill="#FFFFFF" d="M111.2,25.9v3.8h3.6v0.7h-3.6v4.1h4.4v0.7h-5.2V25.1h5.1l-0.1,0.7H111.2z"/>
	</g>
</g>
<g>
	<g>
		<g>
			<polygon fill="#A13E1C" points="80.8,158.7 79.3,158.7 79.3,150.7 78.1,150.7 78.1,156.4 76.7,156.4 76.7,149.3 80.8,149.3 			
				"/>
		</g>
		<g>
			<g>
				<path fill="#A13E1C" d="M45.9,180.5c-0.5,0-0.9-0.4-0.9-0.9v-2.3c0-0.5,0.4-0.9,0.9-0.9c0.5,0,0.9,0.4,0.9,0.9v2.3
					C46.8,180,46.4,180.5,45.9,180.5z"/>
			</g>
			<g>
				<path fill="#A13E1C" d="M72.6,178.6c-0.5,0-0.9-0.4-0.9-0.9v-4.9c0-0.5,0.4-0.9,0.9-0.9s0.9,0.4,0.9,0.9v4.9
					C73.5,178.2,73.1,178.6,72.6,178.6z M45.9,175.2c-0.5,0-0.9-0.4-0.9-0.9v-4.9c0-0.5,0.4-0.9,0.9-0.9c0.5,0,0.9,0.4,0.9,0.9v4.9
					C46.8,174.8,46.4,175.2,45.9,175.2z M72.6,170.8c-0.5,0-0.9-0.4-0.9-0.9v-0.2c0-0.8-0.3-1.5-0.9-2l-1.2-1.1
					c-0.4-0.3-0.4-0.9-0.1-1.3c0.3-0.4,0.9-0.4,1.3-0.1l1.2,1.1c1,0.9,1.6,2.1,1.6,3.4v0.2C73.5,170.3,73.1,170.8,72.6,170.8z
					 M45.9,167.3C45.9,167.3,45.8,167.3,45.9,167.3c-0.6,0-1-0.5-0.9-1c0.1-1.3,0.8-2.4,1.8-3.2l1.5-1.1c0.4-0.3,1-0.2,1.3,0.2
					c0.3,0.4,0.2,1-0.2,1.3l-1.5,1.1c-0.6,0.4-1,1.1-1,1.9C46.8,167,46.4,167.3,45.9,167.3z M67.9,164.9c-0.2,0-0.4-0.1-0.6-0.2
					l-3.7-3.2c-0.4-0.3-0.4-0.9-0.1-1.3c0.3-0.4,0.9-0.4,1.3-0.1l3.7,3.2c0.4,0.3,0.4,0.9,0.1,1.3C68.4,164.7,68.1,164.9,67.9,164.9
					z M51.2,161.9c-0.3,0-0.6-0.1-0.8-0.4c-0.3-0.4-0.2-1,0.2-1.3l3.9-2.9c0.4-0.3,1-0.2,1.3,0.2c0.3,0.4,0.2,1-0.2,1.3l-3.9,2.9
					C51.6,161.8,51.4,161.9,51.2,161.9z M61.9,159.7c-0.2,0-0.4-0.1-0.6-0.2l-1.5-1.3c-0.6-0.5-1.3-0.7-2-0.6c-0.5,0.1-1-0.3-1-0.8
					c-0.1-0.5,0.3-1,0.8-1c1.2-0.2,2.5,0.2,3.5,1.1l1.5,1.3c0.4,0.3,0.4,0.9,0.1,1.3C62.4,159.6,62.2,159.7,61.9,159.7z"/>
			</g>
			<g>
				<path fill="#A13E1C" d="M72.6,183.9c-0.5,0-0.9-0.4-0.9-0.9v-2.3c0-0.5,0.4-0.9,0.9-0.9s0.9,0.4,0.9,0.9v2.3
					C73.5,183.5,73.1,183.9,72.6,183.9z"/>
			</g>
		</g>
		<g>
			
				<rect x="78.4" y="166.6" transform="matrix(0.4027 0.9153 -0.9153 0.4027 205.2972 31.123)" fill="#A13E1C" width="0.8" height="12.5"/>
		</g>
		<g>
			
				<rect x="78.4" y="169.2" transform="matrix(0.4027 0.9153 -0.9153 0.4027 207.6325 32.6468)" fill="#A13E1C" width="0.8" height="12.5"/>
		</g>
		<g>
			
				<rect x="78.4" y="171.7" transform="matrix(0.4027 0.9153 -0.9153 0.4027 209.9675 34.1704)" fill="#A13E1C" width="0.8" height="12.5"/>
		</g>
		<g>
			<path fill="#A13E1C" d="M72.8,169.6c-0.3,0-0.5-0.2-0.6-0.4c-0.2-0.4,0-0.8,0.4-0.9l12-5.3c0.4-0.2,0.8,0,0.9,0.4
				c0.2,0.4,0,0.8-0.4,0.9l-12,5.3C73,169.6,72.9,169.6,72.8,169.6z"/>
		</g>
		<g>
			<path fill="#A13E1C" d="M58.4,156.7"/>
		</g>
		<g>
			<g>
				<path fill="#A13E1C" d="M96.4,181.2h-6.7c-0.5,0-0.9-0.4-0.9-0.9c0-0.5,0.4-0.9,0.9-0.9h6.7c0.5,0,0.9,0.4,0.9,0.9
					C97.3,180.8,96.9,181.2,96.4,181.2z"/>
			</g>
		</g>
		<g>
			<path fill="#A13E1C" d="M89.6,181.2c-1.9,0-3.6-0.6-4.6-1.6c-0.7-0.7-1.1-1.6-1.1-2.7v-12.5c0-0.8-0.3-1.5-0.9-2l-10.9-9.4
				c-1.3-1.2-2.5-1.4-3.7-0.7c-0.5,0.2-1,0.1-1.3-0.4c-0.2-0.5-0.1-1,0.4-1.3c1.9-1,3.9-0.7,5.8,1l10.9,9.4c1,0.9,1.6,2.1,1.6,3.4
				V177c0,0.6,0.2,1,0.5,1.4c0.6,0.6,1.9,1,3.3,1c0,0,0,0,0,0c0.5,0,0.9,0.4,0.9,0.9C90.6,180.8,90.2,181.2,89.6,181.2
				C89.7,181.2,89.7,181.2,89.6,181.2z"/>
		</g>
		<g>
			<path fill="#A13E1C" d="M57.8,157.6c-0.3,0-0.7-0.2-0.8-0.5c-0.2-0.5,0-1,0.4-1.3l10.2-5.1c0.5-0.2,1,0,1.3,0.4
				c0.2,0.5,0,1-0.4,1.3l-10.2,5.1C58.1,157.6,58,157.6,57.8,157.6z"/>
		</g>
		<g>
			<path fill="#A13E1C" d="M53.7,174.2L53.7,174.2c-0.7-0.1-1.3-0.7-1.3-1.5v-3.5c0-0.9,0.8-1.6,1.7-1.5h0c0.7,0.1,1.3,0.7,1.3,1.5
				v3.5C55.4,173.6,54.6,174.3,53.7,174.2z"/>
		</g>
		<g>
			<path fill="#A13E1C" d="M62.3,175.4l-0.2,0c-0.7-0.1-1.2-0.7-1.2-1.3v-3.7c0-0.8,0.7-1.5,1.5-1.3l0.2,0c0.7,0.1,1.2,0.7,1.2,1.3
				v3.7C63.8,174.9,63.1,175.5,62.3,175.4z"/>
		</g>
	</g>
	<g>
		<path fill="#A13E1C" d="M108.7,172.1c0.9,0.7,1.3,2,1.3,3.9c0,1.9-0.4,3.2-1.3,4s-2,1.1-3.2,1.1h-2.2V171h2
			C106.7,171,107.8,171.4,108.7,172.1z M104.2,180.4h1.3c2.4,0,3.6-1.5,3.6-4.4c0-1.2-0.2-2.1-0.5-2.7c-0.3-0.6-0.8-1-1.3-1.2
			c-0.5-0.2-1.1-0.3-1.8-0.3h-1.2V180.4z"/>
		<path fill="#A13E1C" d="M112.6,181.2V171h0.9v10.1H112.6z"/>
		<path fill="#A13E1C" d="M126.6,176.5c0.4,0.4,0.6,1,0.6,1.8c0,0.9-0.3,1.6-1,2.1s-1.5,0.7-2.7,0.7h-2.8V171h2.3
			c1.2,0,2.1,0.2,2.7,0.6c0.6,0.4,1,1.1,1,1.9c0,0.6-0.2,1.1-0.5,1.5c-0.3,0.4-0.8,0.6-1.4,0.7C125.7,175.9,126.2,176.1,126.6,176.5
			z M121.8,175.5h2c0.6,0,1.1-0.2,1.5-0.5c0.4-0.3,0.6-0.8,0.6-1.4c0-0.7-0.2-1.1-0.7-1.4c-0.4-0.3-1.1-0.4-2-0.4h-1.5V175.5z
			 M126.4,178.3c0-0.7-0.2-1.3-0.7-1.6c-0.4-0.4-1-0.5-1.8-0.5h-2.1v4.2h1.9C125.5,180.4,126.4,179.7,126.4,178.3z"/>
		<path fill="#A13E1C" d="M135.4,171.5c0.6,0.4,1.1,1,1.4,1.8c0.3,0.8,0.5,1.7,0.5,2.8c0,1.1-0.2,2-0.5,2.8
			c-0.3,0.8-0.8,1.4-1.4,1.8c-0.6,0.4-1.3,0.6-2.2,0.6c-0.8,0-1.5-0.2-2.2-0.6c-0.6-0.4-1.1-1-1.4-1.8c-0.3-0.8-0.5-1.7-0.5-2.8
			c0-1.1,0.2-2,0.5-2.8c0.3-0.8,0.8-1.4,1.5-1.8c0.6-0.4,1.3-0.6,2.1-0.6C134,170.9,134.7,171.1,135.4,171.5z M130.9,172.8
			c-0.6,0.8-0.9,1.9-0.9,3.4c0,1.5,0.3,2.6,0.9,3.3c0.6,0.7,1.4,1.1,2.3,1.1c1,0,1.8-0.4,2.4-1.1c0.6-0.7,0.8-1.9,0.8-3.3
			c0-1.5-0.3-2.6-0.8-3.4c-0.6-0.7-1.4-1.1-2.4-1.1C132.2,171.6,131.4,172,130.9,172.8z"/>
		<path fill="#A13E1C" d="M145,180.4l-0.1,0.8h-5V171h0.9v9.3H145z"/>
		<path fill="#A13E1C" d="M152.4,171.5c0.6,0.4,1.1,1,1.4,1.8c0.3,0.8,0.5,1.7,0.5,2.8c0,1.1-0.2,2-0.5,2.8
			c-0.3,0.8-0.8,1.4-1.4,1.8c-0.6,0.4-1.3,0.6-2.2,0.6c-0.8,0-1.5-0.2-2.2-0.6s-1.1-1-1.4-1.8c-0.3-0.8-0.5-1.7-0.5-2.8
			c0-1.1,0.2-2,0.5-2.8c0.3-0.8,0.8-1.4,1.5-1.8c0.6-0.4,1.3-0.6,2.1-0.6C151.1,170.9,151.8,171.1,152.4,171.5z M147.9,172.8
			c-0.6,0.8-0.9,1.9-0.9,3.4c0,1.5,0.3,2.6,0.9,3.3c0.6,0.7,1.4,1.1,2.3,1.1c1,0,1.8-0.4,2.4-1.1c0.6-0.7,0.8-1.9,0.8-3.3
			c0-1.5-0.3-2.6-0.8-3.4c-0.6-0.7-1.4-1.1-2.4-1.1C149.3,171.6,148.5,172,147.9,172.8z"/>
		<path fill="#A13E1C" d="M162,171.1c0.4,0.2,0.9,0.4,1.3,0.8l-0.5,0.5c-0.4-0.3-0.7-0.5-1.1-0.6c-0.3-0.1-0.7-0.2-1.2-0.2
			c-0.6,0-1.1,0.2-1.6,0.5c-0.5,0.3-0.9,0.8-1.2,1.5c-0.3,0.7-0.5,1.5-0.5,2.5c0,1.5,0.3,2.6,0.9,3.4c0.6,0.7,1.4,1.1,2.4,1.1
			c0.8,0,1.5-0.2,2.1-0.5v-3.6h-2l-0.1-0.7h3v4.8c-0.9,0.6-2,0.8-3,0.8c-0.8,0-1.6-0.2-2.2-0.6c-0.6-0.4-1.1-1-1.4-1.8
			c-0.3-0.8-0.5-1.8-0.5-2.9c0-1.1,0.2-2,0.6-2.8c0.4-0.8,0.9-1.4,1.5-1.8c0.6-0.4,1.3-0.6,2.1-0.6C161.1,170.9,161.6,171,162,171.1
			z"/>
		<path fill="#A13E1C" d="M171.6,181.2l-4.8-9.1c0.1,1.2,0.1,2.4,0.1,3.5v5.7h-0.8V171h1.1l4.8,9.1c-0.1-1.1-0.1-2.1-0.1-3V171h0.8
			v10.1H171.6z"/>
		<path fill="#A13E1C" d="M176.4,178.4l-0.9,2.8h-0.9L178,171h1.1l3.4,10.1h-0.9l-0.9-2.8H176.4z M178.6,171.8l-1.9,5.9h3.8
			L178.6,171.8z"/>
	</g>
	<g>
		<g>
			<path fill="#A13E1C" d="M190.6,158.6c-1.5,2.2-3.6,3.7-6,4.7c-1.2,0.5-2.8,1.2-4.1,0.9c-1.9-0.5-3.3-2.8-2.5-4.6
				c2.9,0.9,5.8,0,8-1.9c1.3-1.2,2.9-3.3,1.3-4.7c0-0.1,0-0.1-0.1-0.2c-0.1-0.1-0.3-0.1-0.4-0.2c-3.8-0.3-7.1,3.2-9.3,5.9
				c-0.1,0.1-0.1,0.2-0.1,0.2c-0.1,0.1-0.1,0.2-0.1,0.3c-1.6,2-3.4,4.1-5.8,5c-1.2,0.5-2.6,0.7-2.3-1.7c0.1-0.7,0.7-1.3,1.1-1.8
				c0.8-1.2,1.7-2.4,2.6-3.5c0.2-0.2,0.1-0.4,0-0.6c0,0,0,0-0.1-0.1c-1.1-1-2.1-1.9-3.2-2.9c0.8-1.1,1.6-2.3,2.3-3.4
				c0.3-0.5-0.4-1.1-0.7-0.6c-2.7,4.1-5.5,8.1-8.5,12c0,0-0.1,0.1-0.1,0.1c-0.7,1-1.5,2.2-2.7,2.6c-3.5,1.1-3.7-3-3.4-4.7
				c0.3-2.2,1.2-4.3,2.2-6.2c0.2-0.4,0.5-0.9,0.7-1.3c0.3-0.4,0.5-0.8,0.7-1.3c0.4-0.7,0.8-1.3,1.2-2c1.7,0,3.4,0,5.1,0
				c0.6,0,0.5-0.9-0.1-0.9c-1.2,0-2.3,0-3.5,0c-0.3,0-0.7,0-1,0c1.2-1.9,2.4-3.8,3.6-5.8c0.3-0.5-0.4-1.1-0.7-0.6
				c-1.3,2.1-2.7,4.2-4,6.3c-0.2,0-0.4,0-0.6,0c-1.6,0-1.3,0-2.9,0c-0.6,0-0.5,0.9,0.1,0.9c1.5,0,1.2,0,2.8,0l0,0c0,0,0,0,0,0
				c-0.3,0.5-0.6,1-0.9,1.5c0,0-0.1,0.1-0.1,0.1c-0.2,0.4-0.5,0.8-0.7,1.2c-1.6,2.6-3.5,5-5.7,7.2c-0.1,0.1-0.1,0.1-0.1,0.2
				c-1.5,1.7-3,3.5-5,4.5c-1.8,0.9-4.1,1.4-4.8-1.5c-0.2-0.8,0-1.9,0.2-2.8c2.5-2,4.9-4.2,7.1-6.5c2.2-2.3,5-5.1,6.3-8
				c0.6-1.3,0.5-3.5-1.3-3.7c-2.2-0.3-4.8,3.5-5.9,5c-2.1,2.7-4,5.8-5.6,8.8c-0.6,1.1-1.2,2.5-1.6,3.9c-0.1,0.1-0.2,0.1-0.3,0.2
				c-0.1,0.2-0.2,0.4-0.3,0.5c0,0.1-0.1,0.1-0.1,0.2c-1,1.7-2.6,3.8-4.4,4.5c-4.2,1.6-4.1-4.8-2.7-7.1c0.3-0.4-0.3-0.7-0.6-0.6
				c-0.1,0-0.3,0-0.4,0.2c-1,1.6-2,3.2-3.2,4.6c-1.3,1.4-6.9,5.2-6.4,0.4c0.2-2.2,1.6-4.4,3.1-5.9c0.9-1,2.1-1.9,3.3-2.5
				c1.8-0.8,5.7-1.1,5.1,2.3c-0.1,0.6,0.8,0.7,0.9,0.1c0.6-3.2-2.7-4.5-5.3-3.7c-3.6,1.2-6.6,4.7-7.7,8.2c-0.7,2.4-0.2,5.4,3,4.7
				c2.8-0.6,4.9-2.9,6.5-5.3c-0.3,2.4,0.3,5,2.6,5.7c2.6,0.7,5.2-2.2,6.7-4.5c0,0.7,0.1,1.4,0.3,2c2.1,6.2,9.5-1.2,11.5-3.5
				c0-0.1,0.1-0.1,0.1-0.2c0.9-0.9,1.8-1.9,2.6-2.9c-0.4,1.1-0.7,2.2-0.8,3.4c-0.2,2.1,0.3,4.6,2.4,5.4c2.3,0.9,4.1-1.1,5.3-2.8
				c0,0,0.1,0,0.1-0.1c2-2.6,3.9-5.2,5.8-7.9c0.9,0.8,1.9,1.7,2.8,2.5c-1.5,1.9-6.1,7.1-2.6,8.4c2.7,1,5.7-1.9,7.6-4.2
				c0.1,2,1.4,3.9,3.5,4.2c4,0.5,8.9-2.8,11-6C191.7,158.7,191,158.1,190.6,158.6z M186.5,153.5c1.9,1.5-1.7,3.9-2.7,4.5
				c-1.7,1-3.5,1.3-5.4,0.7C180.4,156.5,183.4,153.4,186.5,153.5z M149.8,146.8c0.6-0.7,1.1-1.5,1.7-2.2c0.5-0.6,1-1.1,1.6-1.6
				c0.2-0.3,0.5-0.5,0.7-0.6c0.6-0.3,1.4-0.3,1.7,0.4c0.2,0.5,0.2,0.9,0.1,1.3c0,0,0,0,0,0c-0.2,0.9-1.5,2.2-2.1,2.9
				c-0.7,0.8-1.3,1.7-2,2.5c-2.4,2.9-5.1,5.4-8,7.8C144.8,153.6,147.4,150,149.8,146.8z"/>
			<path fill="#A13E1C" d="M170.4,166c-0.5,0-0.9-0.1-1.4-0.2c-1.1-0.4-1.4-1.1-1.6-1.6c-0.6-2.2,2.1-5.5,3.6-7.3l-1.9-1.7
				c-1.8,2.6-3.6,5.1-5.4,7.4l-0.1,0.1c-1,1.4-2.6,3.2-4.6,3.2c-0.4,0-0.9-0.1-1.3-0.3c-2.1-0.8-3.1-3.1-2.8-6
				c0-0.3,0.1-0.6,0.1-0.9c-0.3,0.3-0.6,0.6-0.8,0.9c0,0.1-0.1,0.2-0.1,0.2c-0.2,0.2-5.2,6.1-9.1,6.1c-1.1,0-2.6-0.5-3.4-2.8
				c-0.1-0.2-0.1-0.4-0.2-0.5c-1.3,1.6-3.3,3.6-5.5,3.6c-0.3,0-0.7,0-1-0.1c-2-0.6-2.9-2.4-3-4.4c-1.4,1.7-3.3,3.5-5.7,4
				c-1.4,0.3-2.6,0-3.3-1c-0.9-1.2-0.8-3.1-0.4-4.5c1.2-4,4.5-7.5,8.1-8.6c1.9-0.6,4.3-0.1,5.4,1.3c0.7,0.8,0.9,1.9,0.7,3.1
				c-0.1,0.5-0.5,0.9-1.1,0.9c-0.3,0-0.5-0.1-0.7-0.3c0.2,0.3,0.1,0.6,0,0.9c-0.8,1.4-1.1,4.2-0.3,5.6c0.5,0.8,1.2,1,2.3,0.6
				c1.3-0.5,2.9-2.1,4.1-4.2l0.1-0.1c0.1-0.2,0.2-0.4,0.3-0.6l0.3-0.3c0.4-1.4,1-2.8,1.6-3.8c1.5-2.9,3.4-5.9,5.6-8.9l0.4-0.5
				c1.4-1.9,3.7-5,6-4.7c0.8,0.1,1.4,0.5,1.8,1.2c0.6,1.1,0.4,2.5,0,3.4c-1.3,2.7-3.7,5.2-5.8,7.4l-0.7,0.7c-2.1,2.2-4.4,4.4-7,6.4
				c-0.2,1-0.3,1.8-0.2,2.4c0.4,1.6,1.2,1.7,1.8,1.7c0.6,0,1.3-0.2,2.2-0.6c1.9-1,3.3-2.6,4.8-4.3c0-0.1,0.1-0.2,0.2-0.3
				c2.1-2.2,4-4.5,5.6-7.1c0.2-0.4,0.5-0.8,0.7-1.2l0.6,0.2l-0.5-0.3l0.3-0.4c0.1-0.1,0.1-0.2,0.2-0.3l-1.7,0
				c-0.7,0-1.1-0.6-1.1-1.1c0-0.6,0.4-1,1-1l2.9,0c0.1,0,0.2,0,0.3,0l3.8-6c0.4-0.6,1.4-0.6,1.8,0.1c0.2,0.4,0.2,0.8,0,1.1l-3,4.8
				l3.4,0c0.7,0,1.1,0.6,1.1,1.1c0,0.6-0.4,1-1,1l-4.8,0c-0.4,0.6-0.7,1.1-1.1,1.7l-0.2,0.4c-0.2,0.3-0.3,0.6-0.5,0.8l-0.2,0.4
				c-0.2,0.3-0.3,0.6-0.5,0.9c-0.9,1.6-1.9,3.8-2.2,6c-0.2,1.3,0,3,0.7,3.8c0.4,0.5,1.1,0.6,2,0.3c0.9-0.3,1.6-1.2,2.2-2.1l0.2-0.3
				c0.1-0.1,0.1-0.1,0.2-0.2c3-3.8,5.8-7.8,8.4-11.9c0.4-0.6,1.4-0.5,1.8,0.1c0.2,0.4,0.2,0.8,0,1.1c-0.7,1-1.3,2-2,3l3,2.7
				c0.3,0.3,0.3,0.9,0,1.3l-0.5,0.7c-0.7,0.9-1.4,1.9-2.1,2.8c-0.1,0.1-0.2,0.3-0.3,0.4c-0.3,0.4-0.6,0.8-0.7,1.2
				c-0.1,0.9,0,1.2,0.1,1.2c0,0,0.1,0.1,0.3,0.1c0.3,0,0.8-0.1,1.1-0.3c2.3-0.9,4-2.9,5.5-4.8c0-0.1,0.1-0.1,0.1-0.2
				c0-0.2,0.1-0.3,0.2-0.4c2.5-3,5.8-6.5,9.8-6.1l0.2,0c0.2,0.1,0.3,0.1,0.5,0.2l0.2,0.2c0,0.1,0.1,0.1,0.1,0.2
				c0.5,0.5,0.8,1.1,0.8,1.8c0,1.6-1.5,3.1-2.2,3.7c-2.4,2.1-5.3,2.9-8,2.2c-0.1,0.5,0,1.1,0.3,1.7c0.4,0.8,1.2,1.5,2,1.7
				c0.9,0.2,2.4-0.3,3.5-0.8l0.2-0.1c2.5-1,4.4-2.5,5.8-4.5c0.4-0.6,1.4-0.5,1.8,0.1c0.2,0.4,0.2,0.8-0.1,1.1
				c-2.1,3.1-6.6,6.3-10.6,6.3l0,0c-0.3,0-0.6,0-1-0.1c-2-0.3-3.3-1.8-3.8-3.5C174.9,164.1,172.7,166,170.4,166z M168.5,163.5
				c0,0.1,0,0.2,0,0.3c0,0.1,0.1,0.2,0.1,0.3C168.6,163.9,168.6,163.7,168.5,163.5z M132.6,153.3c-0.8,0-1.6,0.2-2.3,0.5
				c-1,0.5-2.2,1.3-3.1,2.3c-1.7,1.7-2.8,3.8-3,5.6c-0.1,0.7,0,1.2,0.2,1.5c0,0,0.2,0.2,0.6,0.2c1.4,0,3.8-1.7,4.6-2.6
				c1.3-1.4,2.3-3,3.2-4.5c0.2-0.3,0.4-0.5,0.7-0.5c0.4-0.1,0.8,0,1.1,0.2c-0.1-0.2-0.1-0.4-0.1-0.7c0.1-0.7,0.1-1.2-0.2-1.5
				C134,153.5,133.4,153.3,132.6,153.3z M179.6,158.4c1.4,0.2,2.7-0.1,4-0.9c1.2-0.7,2.9-2.1,2.9-3c0-0.1,0-0.3-0.2-0.5c0,0,0,0,0,0
				C183.6,154.1,181,156.8,179.6,158.4z M154.5,142.8c-0.1,0-0.3,0-0.4,0.1c-0.2,0.1-0.3,0.1-0.5,0.4c-0.6,0.6-1.1,1.1-1.6,1.7
				c-0.5,0.6-1.1,1.3-1.7,2.1c-1.8,2.5-3.8,5.3-5.2,8.3c2.2-2,4.3-4,6.1-6.2c0.7-0.8,1.4-1.6,2-2.5c0.1-0.2,0.3-0.4,0.6-0.7
				c0.5-0.5,1.2-1.3,1.3-1.9l0-0.1l0.1-0.2c0.1-0.3,0.1-0.6,0-0.9C154.9,142.9,154.7,142.8,154.5,142.8z M154.5,141.6
				c0.7,0,1.2,0.3,1.5,1c0.1,0.1,0.1,0.2,0.2,0.4c0-0.3-0.1-0.7-0.2-0.9c-0.2-0.3-0.5-0.5-0.9-0.6c-0.4,0-0.7,0.1-1.1,0.3
				C154.1,141.7,154.3,141.6,154.5,141.6z"/>
		</g>
		<g>
			<g>
				<path fill="#A13E1C" d="M250.7,158.6c-1.6,2.1-3.7,3.8-6.1,4.9c-0.6,0.3-1.5,0.7-2.2,0.7c-0.9,0.1-2.9-0.9-3.3-1.7
					c-0.3-0.7-0.1-1.7,0.2-2.6c3.3,0.5,8.5-1.4,8.9-4.9c0.6-4.5-6-1-7.3,0.3c-0.2,0.2-0.5,0.5-0.7,0.8c-0.1,0-0.1,0.1-0.2,0.1
					c-1.3,1.7-2.9,3-4.9,3.8c-0.5,0.2-1,0.4-1.6,0.5c0.2-2.7-0.8-5.6-1.2-8l1.6-2.4c0.3-0.5-0.4-1.1-0.7-0.6
					c-1.8,2.8-3.6,5.6-5.4,8.4c-0.1,0-0.1,0.1-0.2,0.1c-1.2,1.8-2.4,3.7-4.2,5c-0.7,0.5-2.2,1.7-3,0.4c-0.4-0.6-0.2-1.7-0.1-2.4
					c0.2-1.2,0.6-2.3,1.1-3.4c0,0,0,0,0,0c0.1-0.1,0.1-0.2,0.1-0.3c0.1-0.5-0.7-0.8-0.9-0.3c0,0,0,0.1-0.1,0.2
					c-1,1.3-1.9,2.7-3.1,3.9c-0.8,0.8-1.7,1.7-2.7,2.1c-3.1,1.3-4.7-0.8-3.7-3.5c0.7-1.8,2.1-3.5,3.7-4.6c1.4-1,7.8-4.1,7.6,0.3
					c0,0.6,0.9,0.7,0.9,0.1c0.2-3.2-3.1-3.7-5.6-2.9c-2.7,0.8-5.2,2.7-6.6,5.1c-0.1,0-0.2,0.1-0.3,0.1c-2.2,2.5-6.3,7.2-10.1,6.2
					c-3.6-0.9-1.9-4.9-0.5-6.9c0.5-0.8,1.2-1.4,1.9-2c0.3-0.2,0.6-0.5,0.9-0.7c1.6-1.4,2.8-1,3.5,1.3c-0.3,0.5,0.4,1.1,0.7,0.6
					c1.4-2.1-0.7-3.9-2.9-3.5c-3.1,0.6-5.7,4.2-6.5,7.2c-0.8,2.8,0.7,5.5,3.9,5.2c3.2-0.3,6-2.6,8.3-5c-0.5,2.2,0.4,4.8,3.1,4.6
					c2.6-0.1,4.8-2.4,6.5-4.6c-0.5,2.2-0.6,4.6,1.6,4.8c2.9,0.3,5.5-3.7,6.9-6c0.1,0,0.1-0.1,0.2-0.2c1.1-1.8,2.2-3.5,3.4-5.3
					c0.3,1.4,0.7,2.8,0.9,4.3c0.1,0.9,0.2,1.9,0.1,2.8c-0.9,0.2-1.9,0.3-2.8,0.5c-1.4,0.4-2.8,1.5-2.4,2.9c0,0.1,0,0.3,0.1,0.4
					c0.1,0.1,0.2,0.2,0.3,0.3c0,0,0,0,0,0c0.1,0.1,0.1,0.1,0.2,0.1c1.5,1.1,3.5,0.5,4.6-1.2c0.4-0.7,0.7-1.4,0.9-2.2
					c0.8-0.2,1.6-0.5,2.4-0.8c0.8-0.4,1.5-0.8,2.2-1.3c0,0.1,0.1,0.2,0.2,0.2c0,0,0,0,0.1,0c-0.7,2.1-0.6,4.2,1.3,5.3
					c1.9,1,4.5-0.1,6.2-1c2.2-1.1,4-2.8,5.5-4.7C251.8,158.7,251.1,158.2,250.7,158.6z M239.9,158.5c0.8-1.7,3.7-5.1,6-4.7
					c2.9,0.5,0.7,2.5,0.1,3.1c-0.7,0.6-1.3,1.1-2.1,1.5c-1.3,0.6-2.8,1-4.3,0.8C239.7,158.9,239.8,158.6,239.9,158.5z M228.6,164.3
					c-1.3-1.7,2.6-2.2,3.8-2.4C231.9,163.4,230.5,166,228.6,164.3z"/>
			</g>
			<g>
				<path fill="#A13E1C" d="M250.3,158.4c-1.6,2.2-3.6,3.8-5.9,4.8l-0.2,0.1c-0.6,0.3-1.3,0.6-1.9,0.6c0,0,0,0-0.1,0
					c-0.8,0.1-1.5-0.1-2.2-0.5c-0.1-0.1-0.2-0.2-0.2-0.3c-0.2-0.2-0.3-0.6-0.3-0.9c0,0,0-0.1,0-0.1c0,0,0,0,0,0l0,0
					c0-0.4,0-0.9,0.2-1.4c0.3,0,0.5,0,0.8,0c3.2,0,7.8-1.9,8.3-5.4c0.1-0.9,0-1.6-0.5-2.1c-0.4-0.4-0.9-0.6-1.6-0.6
					c-2,0-5,1.7-6,2.7c-0.2,0.2-0.4,0.5-0.7,0.8c-0.1,0.1-0.1,0.1-0.2,0.2c-1.4,1.7-2.9,2.9-4.7,3.7c-0.3,0.1-0.6,0.2-0.9,0.3
					c0-1.9-0.4-3.8-0.8-5.5c-0.1-0.6-0.3-1.2-0.4-1.8l1.5-2.3c0.2-0.3,0.2-0.7,0-1c-0.3-0.6-1.2-0.7-1.6-0.1l-5.3,8.4
					c-0.1,0.1-0.2,0.1-0.2,0.2l-0.1,0.1c-1.2,1.7-2.3,3.5-4,4.8c-0.4,0.3-1.1,0.9-1.7,0.9c-0.2,0-0.4,0-0.6-0.4
					c-0.3-0.4-0.1-1.3,0-1.9l0-0.1c0.2-1.1,0.6-2.2,1-3.3c0.1-0.2,0.2-0.3,0.2-0.5c0-0.3,0-0.5-0.2-0.7c-0.4-0.5-1.3-0.4-1.6,0.2
					l0,0.1c-1,1.4-1.9,2.7-3,3.8c-0.7,0.7-1.6,1.6-2.6,2c-1.3,0.6-2.5,0.5-3-0.3c-0.4-0.6-0.5-1.6-0.1-2.6c0.6-1.6,1.9-3.2,3.5-4.4
					c0.8-0.6,3.4-1.9,5.2-1.9c0.6,0,1,0.1,1.3,0.4c0.3,0.3,0.4,0.7,0.4,1.4c0,0.3,0.1,0.5,0.3,0.7c0.2,0.2,0.5,0.3,0.7,0.3
					c0.5,0,0.8-0.4,0.9-0.8c0-1.1-0.2-1.9-0.9-2.6c-0.7-0.7-1.8-1.1-3.2-1.1c-0.7,0-1.5,0.1-2.2,0.3c-2.7,0.8-5.3,2.8-6.8,5.2
					c-0.1,0.1-0.2,0.1-0.3,0.2l-0.1,0.1c-1.9,2.1-5.4,6.1-8.6,6.1c-0.3,0-0.6,0-0.9-0.1c-0.9-0.2-1.4-0.6-1.7-1.3
					c-0.5-1.3,0.3-3.4,1.4-4.9c0.5-0.7,1.1-1.4,1.8-1.9c0.3-0.2,0.5-0.4,0.9-0.6c1.3-1.1,2.1-0.9,2.7,0.9c-0.1,0.2-0.1,0.5,0.1,0.7
					c0.3,0.6,1.2,0.7,1.6,0.1c0.6-0.9,0.7-1.9,0.3-2.7c-0.6-1.1-2.1-1.8-3.6-1.5c-3.4,0.7-6,4.4-6.9,7.5c-0.4,1.6-0.2,3.2,0.7,4.3
					c0.8,1.1,2.2,1.6,3.8,1.5c3.1-0.3,5.6-2.2,7.6-4.2c0,1,0.3,1.9,0.8,2.6c0.7,0.9,1.7,1.3,2.9,1.2c2.3-0.1,4.2-1.7,5.7-3.4
					c-0.1,1.1,0.1,2,0.5,2.7c0.4,0.6,1,0.9,1.8,1c3.1,0.3,5.7-3.7,7.3-6l0-0.1c0.1-0.1,0.2-0.1,0.2-0.2l2.8-4.3
					c0.2,1,0.5,2.1,0.6,3.1c0.1,0.9,0.2,1.7,0.1,2.4l-0.2,0c-0.7,0.1-1.5,0.2-2.3,0.5c-0.9,0.3-2.1,0.9-2.6,1.8
					c-0.2,0.5-0.3,1-0.2,1.5c0,0.2,0,0.5,0.2,0.7c0.1,0.1,0.2,0.2,0.3,0.3c0.1,0.1,0.2,0.2,0.3,0.3c0.6,0.4,1.2,0.6,1.9,0.6
					c1.3,0,2.5-0.7,3.3-2c0.4-0.6,0.7-1.3,0.9-2.1c0.8-0.2,1.5-0.5,2.2-0.8c0.5-0.2,1.1-0.6,1.7-0.9c-0.6,2.4,0,4.2,1.7,5.1
					c0.6,0.3,1.2,0.4,1.9,0.4c1.7,0,3.4-0.8,4.7-1.5c2.2-1.1,4.1-2.7,5.7-4.9C252.7,158.6,251.1,157.3,250.3,158.4z M218,153.1
					c0.3-0.1,0.5-0.1,0.8-0.2c-1.5,0.4-3.2,1.2-4,1.7C215.8,153.9,216.9,153.4,218,153.1z M207.1,154.3c0.3,0.5,0.2,1,0,1.5
					l-0.1-0.2c-0.4-1.4-1.1-2.2-1.9-2.4C206,153.2,206.8,153.7,207.1,154.3z M201.8,164.7c-1.3,0.1-2.3-0.3-2.9-1.1
					c-0.7-0.9-0.9-2.1-0.5-3.5c0.6-2.4,2.5-5.1,4.8-6.3c-0.1,0.1-0.2,0.2-0.3,0.3c-0.3,0.2-0.6,0.4-0.9,0.7
					c-0.7,0.6-1.4,1.3-1.9,2.1c-1.1,1.6-2.2,4-1.5,5.8c0.4,1,1.1,1.6,2.3,1.9C201.1,164.6,201.5,164.7,201.8,164.7
					C201.8,164.7,201.8,164.7,201.8,164.7z M210.3,159.3c0.3-0.4,0.6-0.7,0.9-1l0.1-0.1l0.2,0c-0.3,0.5-0.5,1-0.7,1.4
					c-0.1,0.2-0.1,0.4-0.2,0.6l0.4-1.6L210.3,159.3z M219.3,160c-1.4,1.8-3.5,4.3-6.1,4.4c-0.9,0.1-1.6-0.2-2.1-0.9
					c-0.4-0.5-0.6-1.2-0.6-2c0,0.6,0.2,1.2,0.5,1.6c0.8,1.1,2.4,1.4,4.1,0.6c1.2-0.5,2.1-1.4,2.9-2.2c1.1-1.2,2.1-2.5,3.1-3.9
					l0.1-0.1l0,0l0,0.1c-0.2,0.6-0.5,1.2-0.7,1.8l0.3-1.2L219.3,160z M227.7,159c-1.4,2.2-3.8,5.9-6.4,5.6c-0.5-0.1-0.9-0.2-1.1-0.6
					c-0.2-0.3-0.3-0.8-0.3-1.4c0,0.4,0.1,0.8,0.3,1.1c0.4,0.7,1,0.8,1.4,0.8c0.9,0,1.8-0.7,2.3-1.1c1.6-1.3,2.8-3,3.9-4.6L227.7,159
					z M229.9,164.4c-0.3,0-0.6-0.2-0.9-0.4c-0.2-0.2-0.2-0.4-0.2-0.5c0.2-0.4,1.1-0.8,2.9-1.1C231.2,163.5,230.6,164.4,229.9,164.4z
					 M233.4,161.2l-0.3,0.1l-0.1,0.3c-0.2,0.8-0.4,1.4-0.8,2c-0.1,0.2-0.3,0.4-0.5,0.6c0.5-0.6,0.9-1.4,1.1-2.2l0.2-0.7l-0.9,0.1
					c-1.2,0.2-2.3,0.4-3.2,0.8c0.3-0.2,0.6-0.3,0.9-0.4c0.7-0.2,1.5-0.3,2.2-0.4l0.9-0.1l0-0.3c0.1-0.9,0.1-1.8-0.1-2.9
					c-0.1-1-0.4-2-0.6-3c0.4,1.9,0.9,3.8,0.7,5.6l0,0.6l0.6-0.1c0.2,0,0.4-0.1,0.5-0.1C234,161,233.7,161.1,233.4,161.2z
					 M242.8,159.3c0.4-0.1,0.9-0.3,1.3-0.5c0.8-0.4,1.5-0.9,2.3-1.6c0.4-0.3,1-0.9,1.3-1.6C247.2,157.3,245.1,158.7,242.8,159.3z
					 M247.6,153.6c0.2,0.2,0.3,0.5,0.3,1c0-0.1,0-0.1,0-0.2c-0.2-0.5-0.7-0.9-1.5-1.1C246.8,153.3,247.3,153.4,247.6,153.6z
					 M245.8,154.2c0.6,0.1,1,0.3,1.1,0.5c0.1,0.2,0,0.7-1.2,1.7c-0.7,0.6-1.3,1.1-2,1.4c-1.2,0.6-2.3,0.9-3.4,0.8c0,0,0,0,0,0
					C241.1,157.1,243.8,153.8,245.8,154.2z M238.3,158.8c0.8-0.6,1.5-1.4,2.2-2.2l0.1,0c-0.5,0.6-0.9,1.2-1.1,1.7
					c-0.1,0.2-0.2,0.4-0.3,0.6l-0.2,0.5l0,0l0,0.1l0-0.1l-0.4-0.2L238.3,158.8z M245.7,163.5c-1.1,0.6-2.8,1.4-4.3,1.4
					c-0.6,0-1.1-0.1-1.5-0.3c-1.3-0.7-1.5-1.9-1.4-3.1c0,0.5,0,0.9,0.2,1.3c0.5,1.1,2.7,2.1,3.7,2c0.7-0.1,1.5-0.4,2.2-0.7l0.2-0.1
					c0.4-0.2,0.7-0.3,1-0.5C245.8,163.5,245.7,163.5,245.7,163.5z"/>
			</g>
			<g>
				<path fill="#A13E1C" d="M219.9,162.1c0,0.1,0,0.3,0,0.4C219.9,162.4,219.9,162.2,219.9,162.1z"/>
			</g>
			<g>
				<path fill="#A13E1C" d="M228.2,164.5c-0.1-0.1-0.2-0.2-0.2-0.2l0.1-0.2l-0.1-0.2c0,0,0-0.1,0-0.1
					C228,164.1,228.1,164.3,228.2,164.5L228.2,164.5z"/>
			</g>
			<g>
				<path fill="#A13E1C" d="M248.7,161.5c-0.1,0.1-0.2,0.2-0.3,0.3C248.5,161.6,248.6,161.6,248.7,161.5z"/>
			</g>
			<g>
				<path fill="#A13E1C" d="M247.3,162.6c-0.1,0.1-0.2,0.1-0.3,0.2C247.1,162.7,247.2,162.7,247.3,162.6z"/>
			</g>
			<g>
				<path fill="#A13E1C" d="M249.8,160.4c0.1-0.1,0.1-0.1,0.2-0.2C249.9,160.3,249.9,160.4,249.8,160.4z"/>
			</g>
			<g>
				<path fill="#A13E1C" d="M228.4,158.1l-0.2,0.3l-0.1,0.1l-0.1,0.1c-0.1,0.1-0.1,0.2-0.2,0.2l0.1-0.1L228.4,158.1z"/>
			</g>
		</g>
	</g>
	<g>
		<path fill="#A13E1C" d="M108.4,164.1l-0.1,0.8h-5v-10.1h0.9v9.3H108.4z"/>
		<path fill="#A13E1C" d="M111.2,155.5v3.8h3.6v0.7h-3.6v4.1h4.4v0.7h-5.2v-10.1h5.1l-0.1,0.7H111.2z"/>
	</g>
</g>
</svg>
